<?xml version="1.0" standalone="no"?>
<!DOCTYPE svg PUBLIC "-//W3C//DTD SVG 20010904//EN"
 "http://www.w3.org/TR/2001/REC-SVG-20010904/DTD/svg10.dtd">
<svg version="1.0" xmlns="http://www.w3.org/2000/svg"
 width="1353.000000pt" height="1353.000000pt" viewBox="0 0 1353.000000 1353.000000"
 preserveAspectRatio="xMidYMid meet">
<metadata>
Created by potrace 1.14, written by Peter Selinger 2001-2017
</metadata>
<g transform="translate(0.000000,1353.000000) scale(0.100000,-0.100000)"
fill="#000000" stroke="none">
<path d="M9754 13286 c-17 -13 -14 -18 43 -72 214 -202 447 -440 495 -504 131
-174 87 -185 -152 -39 -61 37 -218 116 -302 153 -21 9 -53 22 -70 30 -89 38
-303 111 -388 132 -8 2 -35 8 -60 15 -25 6 -56 13 -70 15 -14 3 -65 14 -115
24 -220 46 -311 61 -455 75 -30 3 -62 8 -70 10 -15 4 -44 8 -150 20 -30 4 -66
8 -80 10 -60 9 -110 15 -178 20 -41 4 -83 8 -95 11 -140 27 -1110 27 -1247 -1
-22 -5 -98 -17 -185 -31 -130 -20 -165 -47 -131 -102 9 -15 121 -15 205 -1 91
15 149 20 306 25 348 10 863 0 1070 -22 22 -2 69 -6 105 -8 56 -4 129 -12 375
-41 22 -2 58 -7 80 -10 22 -2 63 -7 90 -11 28 -3 53 -8 56 -10 3 -2 34 -8 70
-13 35 -6 75 -13 89 -16 14 -3 36 -7 50 -10 27 -5 60 -12 100 -20 14 -2 39 -7
55 -10 147 -24 360 -82 475 -128 133 -52 357 -164 443 -220 99 -65 213 -173
223 -213 14 -56 -41 -111 -122 -120 l-50 -6 4 34 c4 33 1 37 -40 57 -52 25
-84 27 -96 6 -7 -14 -14 -12 -53 9 -58 33 -160 58 -230 57 l-58 0 -3 36 c-3
39 -13 45 -95 58 -17 2 -47 11 -65 19 -18 8 -73 27 -123 44 -49 17 -133 46
-185 64 -94 34 -188 62 -245 73 -99 20 -328 56 -384 60 -36 3 -84 8 -106 10
-22 2 -78 7 -125 10 -47 3 -110 8 -140 11 -30 2 -95 6 -145 9 -49 3 -107 7
-128 10 -20 2 -65 7 -100 11 -34 3 -73 8 -87 10 -24 4 -69 7 -279 19 -57 3
-107 7 -110 10 -33 20 -909 25 -1046 6 -44 -6 -143 -13 -220 -16 -77 -3 -151
-7 -165 -10 -13 -2 -42 -7 -65 -10 -22 -3 -47 -8 -55 -10 -8 -2 -40 -7 -70
-10 -30 -4 -57 -8 -60 -10 -3 -2 -62 -9 -130 -15 -69 -6 -136 -13 -150 -15
-14 -2 -108 -7 -210 -10 -393 -11 -475 -16 -546 -29 -24 -5 -93 -13 -184 -21
-160 -16 -457 -97 -461 -127 -1 -4 -3 -12 -4 -18 -1 -5 -3 -16 -4 -24 -1 -18
-95 -36 -184 -36 -38 0 -97 -7 -131 -16 -33 -9 -68 -18 -76 -19 -8 -2 -73 -17
-145 -34 -71 -16 -149 -37 -172 -45 -24 -8 -43 -13 -43 -10 0 2 -8 1 -17 -5
-10 -5 -39 -12 -66 -15 -43 -6 -49 -4 -77 24 -36 37 -38 63 -8 106 53 77 205
150 439 210 79 21 145 38 146 39 7 3 9 54 3 65 -10 17 -87 14 -157 -5 -314
-86 -431 -135 -509 -212 -43 -42 -55 -62 -73 -124 -35 -117 -40 -126 -105
-182 -33 -28 -63 -54 -66 -57 -3 -3 -36 -32 -75 -64 -92 -79 -132 -122 -161
-176 -28 -51 -47 -83 -54 -90 -19 -17 -117 -185 -173 -295 -55 -107 -249 -570
-262 -625 -2 -8 -20 -69 -40 -135 -19 -66 -37 -127 -39 -135 -3 -8 -15 -53
-29 -100 -14 -47 -28 -107 -31 -135 -9 -63 -29 -162 -60 -295 -24 -103 -32
-157 -42 -275 -2 -33 -9 -91 -15 -130 -6 -38 -13 -90 -17 -115 -9 -60 -8 -852
1 -915 4 -27 9 -61 12 -75 3 -14 7 -41 10 -60 9 -56 48 -267 59 -320 3 -14 8
-36 11 -50 3 -14 7 -34 9 -45 10 -51 49 -192 86 -310 182 -580 438 -1111 778
-1610 52 -77 98 -142 101 -145 3 -3 28 -34 56 -70 27 -36 52 -67 55 -70 3 -3
30 -34 60 -70 30 -36 74 -86 98 -111 23 -26 97 -115 163 -200 72 -92 144 -173
182 -204 34 -27 85 -73 112 -101 28 -28 58 -54 68 -57 9 -4 22 -18 27 -33 6
-14 39 -55 73 -89 50 -50 72 -65 103 -70 47 -7 44 -5 135 -82 41 -35 80 -63
87 -63 6 0 12 -4 12 -10 0 -5 4 -10 10 -10 13 0 148 -80 325 -192 182 -115
210 -131 400 -228 361 -185 818 -339 1175 -395 42 -7 98 -16 125 -21 11 -3 49
-7 85 -10 36 -3 75 -12 88 -20 30 -19 64 -75 57 -93 -3 -8 -8 -76 -10 -150 -7
-190 -15 -354 -19 -377 -2 -10 -7 -55 -11 -99 -4 -44 -9 -93 -10 -110 -3 -29
-9 -133 -20 -345 -3 -58 -8 -204 -11 -325 -8 -344 -14 -489 -28 -685 -2 -25
-13 -79 -24 -120 -11 -41 -23 -95 -26 -120 -14 -104 -30 -162 -73 -260 -69
-155 -169 -283 -298 -379 -66 -49 -252 -166 -290 -183 -16 -7 -52 -26 -80 -44
-40 -24 -290 -131 -330 -141 -98 -23 -196 -57 -362 -127 -244 -102 -311 -137
-366 -190 -74 -71 -84 -132 -31 -181 26 -24 49 -29 169 -39 33 -3 80 -9 105
-13 61 -11 4053 -10 4110 0 56 11 110 16 177 16 43 1 58 6 87 31 90 80 29 179
-169 275 -180 87 -387 172 -507 208 -146 44 -341 121 -398 157 -25 15 -93 53
-151 83 -59 30 -115 62 -125 70 -11 9 -56 44 -102 78 -137 102 -228 217 -298
375 -31 70 -61 168 -68 219 -10 79 -18 117 -31 156 -8 21 -12 39 -10 39 3 0 0
11 -5 24 -14 38 -26 243 -34 611 -6 221 -10 343 -22 615 -8 196 -13 414 -15
678 l-2 243 28 29 c39 40 75 50 180 48 85 -2 241 8 254 16 3 2 31 7 61 11 30
4 57 8 60 10 3 1 32 6 65 10 33 3 111 20 175 37 63 17 189 49 280 73 178 46
191 51 500 188 233 103 388 181 475 240 156 105 481 356 611 472 125 112 363
336 366 345 2 5 30 38 63 73 33 35 110 117 172 183 213 228 502 614 662 888
99 169 291 573 317 666 2 8 24 76 50 150 65 192 143 472 168 605 62 328 68
365 82 510 3 39 8 79 10 90 4 21 9 85 20 240 3 50 8 108 9 130 6 72 6 789 0
825 -3 19 -7 80 -9 135 -3 55 -9 129 -15 165 -6 36 -13 83 -16 105 -3 22 -8
51 -11 65 -2 14 -7 39 -10 55 -2 17 -12 66 -20 110 -9 44 -18 94 -21 110 -23
136 -111 433 -198 670 -148 401 -251 626 -401 877 -90 151 -250 402 -274 431
-6 6 -24 30 -41 52 -16 22 -74 85 -127 140 -53 55 -114 121 -136 145 -99 116
-259 267 -381 360 -38 29 -88 68 -111 87 -60 48 -106 66 -130 49z m-4971 -703
c-7 -2 -19 -2 -25 0 -7 3 -2 5 12 5 14 0 19 -2 13 -5z m120 0 c-7 -2 -21 -2
-30 0 -10 3 -4 5 12 5 17 0 24 -2 18 -5z m5713 -304 c20 -22 122 -182 197
-309 230 -389 440 -940 577 -1520 54 -225 49 -201 55 -305 3 -49 8 -101 11
-115 3 -14 7 -65 8 -115 0 -49 6 -97 11 -105 6 -8 11 -37 12 -65 5 -96 4 -300
-2 -325 -10 -49 -16 -210 -19 -530 -2 -179 -6 -336 -9 -350 -6 -26 -16 -86
-22 -130 -2 -14 -13 -72 -25 -130 -11 -58 -23 -133 -25 -167 -3 -34 -13 -97
-24 -140 -11 -43 -22 -96 -24 -118 -3 -22 -12 -59 -20 -82 -9 -23 -18 -61 -21
-85 -5 -48 -81 -313 -97 -342 -6 -10 -30 -75 -54 -145 -37 -108 -220 -491
-303 -634 -81 -138 -183 -293 -265 -399 -271 -349 -253 -328 -515 -607 -213
-227 -326 -332 -557 -517 -88 -71 -162 -131 -165 -134 -9 -11 -164 -126 -250
-185 -47 -32 -132 -82 -190 -111 -58 -28 -128 -65 -155 -81 -108 -63 -461
-211 -557 -233 -29 -7 -81 -20 -115 -30 -33 -10 -79 -21 -102 -25 -22 -3 -64
-14 -94 -24 -50 -17 -90 -26 -162 -35 -45 -6 -98 -16 -104 -21 -11 -6 -95 -17
-157 -19 -33 -1 -65 -6 -72 -10 -6 -4 -47 -9 -89 -12 -43 -3 -98 -7 -122 -9
-39 -3 -48 1 -82 34 -21 20 -41 48 -43 64 -5 32 -8 31 35 13 39 -16 146 -15
229 2 65 14 96 19 170 27 30 4 89 15 130 25 41 10 109 23 150 30 67 10 200 43
285 68 74 23 146 64 217 123 42 35 103 80 135 99 190 113 416 312 535 470 31
41 90 136 130 210 41 74 103 178 138 230 34 52 90 151 124 220 35 69 73 143
86 165 32 56 121 235 173 346 24 52 75 142 112 199 101 156 115 181 189 343
38 81 85 178 105 215 20 37 58 117 85 177 27 61 89 192 138 293 93 191 107
224 139 332 22 73 87 364 95 425 10 74 38 207 84 405 27 119 97 456 105 510 4
24 8 47 10 50 2 3 6 34 10 70 4 36 9 74 12 85 12 52 17 607 8 880 -5 154 -15
224 -64 420 -42 171 -74 267 -153 465 -96 239 -121 289 -161 319 l-32 24 50
46 c27 25 69 61 91 78 l42 32 13 -32 c7 -18 32 -63 55 -102 60 -100 86 -155
159 -329 92 -222 147 -405 170 -563 4 -21 10 -63 15 -93 17 -100 21 -144 26
-280 2 -74 6 -169 9 -210 7 -128 8 -742 1 -805 -3 -33 -9 -92 -11 -132 -2 -40
-30 -206 -60 -369 -31 -163 -58 -310 -60 -325 -2 -16 -6 -36 -9 -46 -3 -10 -7
-34 -10 -53 -3 -19 -7 -44 -10 -55 -2 -11 -11 -58 -20 -105 -9 -47 -18 -96
-21 -110 -3 -14 -10 -45 -15 -70 -5 -25 -16 -76 -25 -115 -9 -38 -19 -81 -21
-95 -3 -14 -9 -41 -15 -60 -5 -19 -25 -105 -44 -190 -20 -85 -52 -204 -71
-265 -38 -115 -249 -605 -339 -785 -29 -58 -69 -145 -90 -195 -21 -49 -52
-115 -68 -145 -134 -251 -237 -464 -237 -490 0 -26 3 -30 29 -30 31 0 94 52
216 180 117 122 148 159 239 280 47 63 89 120 94 125 4 6 48 66 97 134 49 69
128 175 175 235 101 129 179 246 243 366 56 103 217 495 280 680 48 143 138
481 157 590 6 36 19 103 30 150 10 47 21 101 24 120 2 19 8 58 12 85 3 28 8
58 10 69 18 103 26 792 11 976 -4 52 -10 167 -12 255 -5 200 -9 231 -51 445
-34 172 -57 257 -118 449 -29 92 -63 200 -76 241 -20 67 -49 131 -118 265 -12
22 -43 85 -70 140 -70 141 -119 222 -159 263 -7 7 -13 17 -13 20 0 4 -10 18
-22 32 -13 14 -57 70 -98 125 -41 55 -80 105 -86 110 -6 6 -14 26 -17 47 -3
20 -22 60 -41 88 -26 38 -36 63 -36 90 0 74 64 180 108 180 10 0 27 -9 38 -21z
m-402 -296 c4 -16 23 -50 44 -75 30 -38 43 -47 69 -48 l33 0 -6 -57 c-11 -114
-20 -127 -136 -206 -61 -41 -66 -43 -57 -21 15 41 11 64 -23 123 -18 31 -52
98 -75 150 -23 51 -50 102 -59 112 -21 23 -18 27 32 35 21 3 40 7 41 7 1 1 31
3 66 5 64 3 65 3 71 -25z m-7763 -474 c-5 -13 -28 -82 -51 -154 -23 -71 -62
-182 -87 -245 -71 -182 -97 -257 -107 -306 -3 -10 -9 -39 -15 -64 -16 -71 -19
-91 -36 -262 -7 -67 -14 -123 -20 -168 -3 -19 -7 -75 -10 -125 -5 -89 -11
-153 -22 -210 -10 -57 -13 -979 -3 -1029 6 -27 12 -77 15 -110 7 -81 16 -166
21 -189 2 -10 6 -46 9 -80 4 -34 8 -64 10 -67 3 -6 12 -91 20 -200 4 -41 8
-86 10 -100 2 -14 7 -43 9 -65 6 -43 34 -143 87 -300 18 -55 34 -104 35 -110
1 -5 39 -136 84 -290 45 -154 84 -287 85 -295 2 -8 4 -15 5 -15 1 0 3 -7 5
-15 3 -14 59 -172 106 -300 27 -72 10 -53 -25 30 -16 36 -56 115 -91 175 -35
61 -66 121 -70 134 -4 13 -20 44 -35 68 -57 90 -223 536 -303 813 -15 52 -80
341 -92 405 -3 17 -14 83 -25 149 -11 65 -23 133 -26 150 -10 46 -10 757 -1
861 17 200 26 275 32 285 1 3 6 41 9 85 4 44 9 91 12 105 6 36 93 462 98 480
29 110 42 154 80 265 24 72 53 155 65 186 11 31 22 67 25 80 13 65 52 165 103
264 31 61 66 129 77 152 20 44 34 53 17 12z m2438 -5185 c2 -2 -3 -4 -11 -4
-9 0 -26 9 -39 20 l-24 21 35 -17 c19 -9 37 -18 39 -20z m516 -1975 c22 -6 49
-13 60 -14 11 -2 90 -17 175 -35 151 -31 173 -34 310 -44 65 -5 79 -7 175 -26
28 -6 73 -11 102 -12 43 -1 57 3 85 27 29 25 33 26 36 10 5 -23 -27 -65 -67
-89 -35 -20 -56 -18 -181 18 -30 9 -84 16 -120 16 -38 0 -102 10 -155 25 -50
14 -110 27 -135 30 -77 10 -102 16 -203 51 -54 19 -110 36 -124 39 -14 2 -28
7 -31 10 -9 9 31 6 73 -6z m1487 -71 c-7 -7 -12 -26 -12 -43 0 -40 -42 -100
-78 -113 -15 -5 -81 -9 -145 -7 -89 2 -123 6 -142 19 -30 20 -65 73 -65 99 0
18 16 24 22 6 6 -19 81 -28 205 -24 129 3 148 9 197 64 11 12 22 19 24 16 3
-3 0 -11 -6 -17z m-148 -311 c55 0 62 -3 98 -39 37 -37 41 -50 39 -113 -3
-106 0 -1286 4 -1306 3 -13 8 -103 10 -199 3 -96 8 -197 10 -225 2 -27 7 -90
10 -140 3 -49 7 -97 10 -105 3 -8 11 -53 20 -100 24 -137 25 -140 51 -245 102
-408 280 -625 734 -891 172 -101 217 -120 758 -321 41 -15 43 -18 40 -52 -3
-32 -7 -36 -43 -47 -29 -8 -520 -11 -1840 -10 -1706 1 -1802 2 -1828 19 -29
19 -36 57 -14 75 6 5 59 26 117 46 58 20 125 45 150 56 25 10 72 28 105 40 33
12 74 28 90 35 17 7 67 27 112 45 101 39 223 108 368 208 235 160 369 299 478
492 30 53 81 183 93 235 11 49 33 156 37 180 3 17 8 41 11 55 3 14 8 36 10 50
3 14 9 48 15 75 17 86 25 192 36 455 3 63 8 131 11 150 4 19 8 368 9 775 l2
739 43 38 42 38 77 -6 c42 -3 103 -6 135 -7z"/>
</g>
</svg>
